<svg width="31" height="31" viewBox="0 0 31 31" version="1.1" xmlns="http://www.w3.org/2000/svg" xmlns:xlink="http://www.w3.org/1999/xlink">
<title>Vector</title>
<desc>Created using Figma</desc>
<g id="Canvas" transform="translate(-58 -2223)">
<g id="Vector">
<use xlink:href="#path0_stroke" transform="translate(60 2225)" fill="#2D9CDB"/>
</g>
</g>
<defs>
<path id="path0_stroke" d="M 6 21L 6 19.5C 5.60218 19.5 5.22064 19.658 4.93934 19.9393L 6 21ZM 0 27L -1.5 27C -1.5 27.6067 -1.13454 28.1536 -0.574025 28.3858C -0.0135136 28.618 0.631663 28.4897 1.06066 28.0607L 0 27ZM 3 0L 3 -1.5L 3 0ZM 24 0L 24 -1.5L 24 0ZM 25.5 18C 25.5 18.3978 25.342 18.7794 25.0607 19.0607L 27.182 21.182C 28.0259 20.3381 28.5 19.1935 28.5 18L 25.5 18ZM 25.0607 19.0607C 24.7794 19.342 24.3978 19.5 24 19.5L 24 22.5C 25.1935 22.5 26.3381 22.0259 27.182 21.182L 25.0607 19.0607ZM 24 19.5L 6 19.5L 6 22.5L 24 22.5L 24 19.5ZM 4.93934 19.9393L -1.06066 25.9393L 1.06066 28.0607L 7.06066 22.0607L 4.93934 19.9393ZM 1.5 27L 1.5 3L -1.5 3L -1.5 27L 1.5 27ZM 1.5 3C 1.5 2.60217 1.65804 2.22064 1.93934 1.93934L -0.181981 -0.181981C -1.02589 0.661933 -1.5 1.80653 -1.5 3L 1.5 3ZM 1.93934 1.93934C 2.22064 1.65804 2.60217 1.5 3 1.5L 3 -1.5C 1.80653 -1.5 0.661933 -1.02589 -0.181981 -0.181981L 1.93934 1.93934ZM 3 1.5L 24 1.5L 24 -1.5L 3 -1.5L 3 1.5ZM 24 1.5C 24.3978 1.5 24.7794 1.65804 25.0607 1.93934L 27.182 -0.181981C 26.3381 -1.02589 25.1935 -1.5 24 -1.5L 24 1.5ZM 25.0607 1.93934C 25.342 2.22064 25.5 2.60218 25.5 3L 28.5 3C 28.5 1.80653 28.0259 0.661933 27.182 -0.181981L 25.0607 1.93934ZM 25.5 3L 25.5 18L 28.5 18L 28.5 3L 25.5 3Z"/>
</defs>
</svg>
