<svg width="17" height="32" viewBox="0 0 17 32" version="1.1" xmlns="http://www.w3.org/2000/svg" xmlns:xlink="http://www.w3.org/1999/xlink">
<title>chevron-right (1)</title>
<desc>Created using Figma</desc>
<g id="Canvas" transform="translate(4423 196)">
<g id="chevron-right (1)">
<g id="Vector">
<use xlink:href="#path0_stroke" transform="translate(-4422 -195)" fill="#FFFFFF"/>
</g>
</g>
</g>
<defs>
<path id="path0_stroke" d="M -0.707107 29.2929C -1.09763 29.6834 -1.09763 30.3166 -0.707107 30.7071C -0.316583 31.0976 0.316583 31.0976 0.707107 30.7071L -0.707107 29.2929ZM 15 15L 15.7071 15.7071C 16.0976 15.3166 16.0976 14.6834 15.7071 14.2929L 15 15ZM 0.707107 -0.707107C 0.316583 -1.09763 -0.316583 -1.09763 -0.707107 -0.707107C -1.09763 -0.316583 -1.09763 0.316583 -0.707107 0.707107L 0.707107 -0.707107ZM 0.707107 30.7071L 15.7071 15.7071L 14.2929 14.2929L -0.707107 29.2929L 0.707107 30.7071ZM 15.7071 14.2929L 0.707107 -0.707107L -0.707107 0.707107L 14.2929 15.7071L 15.7071 14.2929Z"/>
</defs>
</svg>
