<svg width="29" height="29" viewBox="0 0 29 29" version="1.1" xmlns="http://www.w3.org/2000/svg" xmlns:xlink="http://www.w3.org/1999/xlink">
<title>message-circle (2)</title>
<desc>Created using Figma</desc>
<g id="Canvas" transform="translate(576 -6672)">
<g id="message-circle (2)">
<g id="Vector">
<use xlink:href="#path0_stroke" transform="translate(-575 6673)" fill="#2D9CDB"/>
</g>
</g>
</g>
<defs>
<path id="path0_stroke" d="M 27 12.75L 26 12.75L 26 12.7526L 27 12.75ZM 25.65 18.45L 24.7574 17.9992L 24.7555 18.003L 25.65 18.45ZM 14.25 25.5L 14.2496 24.5L 14.2474 24.5L 14.25 25.5ZM 8.54999 24.15L 9.00084 23.2574C 8.76285 23.1372 8.4867 23.117 8.23376 23.2013L 8.54999 24.15ZM 0 27L -0.948683 26.6838C -1.06846 27.0431 -0.974939 27.4393 -0.707107 27.7071C -0.439275 27.9749 -0.043107 28.0685 0.316228 27.9487L 0 27ZM 2.85 18.45L 3.79868 18.7662C 3.88299 18.5133 3.8628 18.2372 3.74259 17.9992L 2.85 18.45ZM 1.5 12.75L 2.5 12.7526L 2.5 12.7504L 1.5 12.75ZM 8.54999 1.35004L 8.99705 2.24455L 9.00084 2.24264L 8.54999 1.35004ZM 14.25 4.27321e-05L 14.2474 1.00004L 14.25 1.00004L 14.25 4.27321e-05ZM 15 4.27321e-05L 15.0551 -0.998439C 15.0367 -0.999451 15.0183 -0.999957 15 -0.999957L 15 4.27321e-05ZM 23.2937 3.70633L 22.5866 4.41343L 23.2937 3.70633ZM 27 12L 28 12C 28 11.9817 27.9995 11.9633 27.9984 11.9449L 27 12ZM 26 12.7526C 26.0117 14.6151 25.6032 16.3398 24.7574 17.9992L 26.5426 18.9009C 27.4819 17.0259 27.9985 14.8445 28 12.7474L 26 12.7526ZM 24.7555 18.003C 23.7673 20.0015 22.3263 21.5789 20.4252 22.7434L 21.4771 24.4444C 23.6028 23.1186 25.4159 21.1338 26.5445 18.8971L 24.7555 18.003ZM 20.4252 22.7434C 18.5341 23.9242 16.479 24.5087 14.2496 24.5L 14.2504 26.5C 16.7556 26.4895 19.3413 25.754 21.4771 24.4444L 20.4252 22.7434ZM 14.2474 24.5C 12.3849 24.5118 10.6602 24.1033 9.00084 23.2574L 8.09913 25.0426C 9.97413 25.9819 12.1555 26.4986 14.2526 26.5L 14.2474 24.5ZM 8.23376 23.2013L -0.316228 26.0513L 0.316228 27.9487L 8.86621 25.0987L 8.23376 23.2013ZM 0.948683 27.3162L 3.79868 18.7662L 1.90131 18.1338L -0.948683 26.6838L 0.948683 27.3162ZM 3.74259 17.9992C 2.89672 16.3398 2.48823 14.6151 2.49999 12.7526L 0.500001 12.7474C 0.501438 14.8445 1.01807 17.0259 1.9574 18.9009L 3.74259 17.9992ZM 2.5 12.7504C 2.4913 10.521 3.07583 8.46594 4.25658 6.57483L 2.55557 5.52289C 1.24599 7.65867 0.510525 10.2444 0.499998 12.7496L 2.5 12.7504ZM 4.25658 6.57483C 5.42106 4.67366 6.99853 3.23268 8.99704 2.24455L 8.10293 0.455536C 5.86621 1.5841 3.8814 3.39716 2.55557 5.52289L 4.25658 6.57483ZM 9.00084 2.24264C 10.6602 1.39676 12.3849 0.988279 14.2474 1.00004L 14.2526 -0.999954C 12.1555 -0.998517 9.97413 -0.481886 8.09913 0.457443L 9.00084 2.24264ZM 14.25 1.00004L 15 1.00004L 15 -0.999957L 14.25 -0.999957L 14.25 1.00004ZM 14.9449 0.998524C 17.891 1.14442 20.5126 2.31592 22.5866 4.41343L 24.0008 2.99922C 21.6465 0.668446 18.3619 -0.799356 15.0551 -0.998439L 14.9449 0.998524ZM 22.5866 4.41343C 24.6841 6.48744 25.8556 9.10896 26.0015 12.0551L 27.9984 11.9449C 27.7994 8.63805 26.3316 5.35349 24.0008 2.99922L 22.5866 4.41343ZM 26 12L 26 12.75L 28 12.75L 28 12L 26 12Z"/>
</defs>
</svg>
