<svg width="43" height="32" viewBox="0 0 43 32" version="1.1" xmlns="http://www.w3.org/2000/svg" xmlns:xlink="http://www.w3.org/1999/xlink">
<title>eye (2)</title>
<desc>Created using Figma</desc>
<g id="Canvas" transform="translate(579 -3324)">
<g id="eye (2)">
<g id="Vector">
<use xlink:href="#path0_stroke" transform="translate(-578 3325)" fill="#00ACEE"/>
</g>
<g id="Vector">
<use xlink:href="#path1_stroke" transform="translate(-563.091 3334.38)" fill="#00ACEE"/>
</g>
</g>
</g>
<defs>
<path id="path0_stroke" d="M 0 15L -0.89551 14.555C -1.03483 14.8353 -1.03483 15.1647 -0.89551 15.445L 0 15ZM 41 15L 41.8955 15.445C 42.0348 15.1647 42.0348 14.8353 41.8955 14.555L 41 15ZM 0 15C 0.89551 15.445 0.895387 15.4453 0.895292 15.4455C 0.895298 15.4455 0.89523 15.4456 0.895242 15.4456C 0.895367 15.4453 0.895401 15.4453 0.89565 15.4448C 0.896353 15.4434 0.897093 15.4419 0.898493 15.4391C 0.901704 15.4327 0.905869 15.4245 0.912258 15.412C 0.925881 15.3853 0.944898 15.3485 0.971951 15.297C 1.02781 15.1908 1.10819 15.0409 1.21864 14.8435C 1.44334 14.4415 1.76999 13.8817 2.21015 13.1964C 3.09918 11.8109 4.38508 10.0078 6.08956 8.18173C 9.50072 4.52097 14.3792 1 20.5 1L 20.5 -1C 13.5754 -1 8.20383 2.97903 4.62635 6.81827C 2.83652 8.74216 1.44344 10.6891 0.527071 12.1161C 0.064525 12.837 -0.293129 13.4492 -0.527052 13.8675C -0.645916 14.0801 -0.73844 14.2525 -0.798145 14.366C -0.828876 14.4245 -0.85331 14.4718 -0.868693 14.5019C -0.876806 14.5178 -0.883533 14.5311 -0.887587 14.5392C -0.889821 14.5436 -0.891807 14.5475 -0.892922 14.5498C -0.893582 14.5511 -0.89423 14.5524 -0.89456 14.5531C -0.894775 14.5535 -0.895013 14.554 -0.895121 14.5542C -0.89533 14.5546 -0.89551 14.555 0 15ZM 20.5 1C 26.6208 1 31.4993 4.52097 34.9104 8.18173C 36.6149 10.0078 37.9008 11.8109 38.7899 13.1964C 39.23 13.8817 39.5567 14.4415 39.7814 14.8435C 39.8918 15.0409 39.9722 15.1908 40.028 15.297C 40.0551 15.3485 40.0741 15.3853 40.0877 15.412C 40.0941 15.4245 40.0983 15.4327 40.1015 15.4391C 40.1029 15.4419 40.1036 15.4434 40.1043 15.4448C 40.1046 15.4453 40.1046 15.4453 40.1048 15.4456C 40.1048 15.4456 40.1047 15.4455 40.1047 15.4455C 40.1046 15.4453 40.1045 15.445 41 15C 41.8955 14.555 41.8953 14.5546 41.8951 14.5542C 41.895 14.554 41.8948 14.5535 41.8946 14.5531C 41.8942 14.5524 41.8936 14.5511 41.8929 14.5498C 41.8918 14.5475 41.8898 14.5436 41.8876 14.5392C 41.8835 14.5311 41.8768 14.5178 41.8687 14.5019C 41.8533 14.4718 41.8289 14.4245 41.7981 14.366C 41.7384 14.2525 41.6459 14.0801 41.5271 13.8675C 41.2931 13.4492 40.9355 12.837 40.4729 12.1161C 39.5566 10.6891 38.1635 8.74216 36.3737 6.81827C 32.7962 2.97903 27.4246 -1 20.5 -1L 20.5 1ZM 41 15C 40.1045 14.555 40.1046 14.5547 40.1047 14.5545C 40.1047 14.5545 40.1048 14.5544 40.1048 14.5544C 40.1046 14.5547 40.1046 14.5547 40.1043 14.5552C 40.1036 14.5566 40.1029 14.5581 40.1015 14.5609C 40.0983 14.5673 40.0941 14.5755 40.0877 14.588C 40.0741 14.6147 40.0551 14.6515 40.028 14.703C 39.9722 14.8092 39.8918 14.9591 39.7814 15.1565C 39.5567 15.5585 39.23 16.1183 38.7899 16.8036C 37.9008 18.1891 36.6149 19.9922 34.9104 21.8183C 31.4993 25.479 26.6208 29 20.5 29L 20.5 31C 27.4246 31 32.7962 27.021 36.3737 23.1817C 38.1635 21.2578 39.5566 19.3109 40.4729 17.8839C 40.9355 17.163 41.2931 16.5508 41.5271 16.1325C 41.6459 15.9199 41.7384 15.7475 41.7981 15.634C 41.8289 15.5755 41.8533 15.5282 41.8687 15.4981C 41.8768 15.4822 41.8835 15.4689 41.8876 15.4608C 41.8898 15.4564 41.8918 15.4525 41.8929 15.4502C 41.8936 15.4489 41.8942 15.4476 41.8946 15.4469C 41.8948 15.4465 41.895 15.446 41.8951 15.4458C 41.8953 15.4454 41.8955 15.445 41 15ZM 20.5 29C 14.3792 29 9.50072 25.479 6.08956 21.8183C 4.38508 19.9922 3.09918 18.1891 2.21015 16.8036C 1.76999 16.1183 1.44334 15.5585 1.21864 15.1565C 1.10819 14.9591 1.02781 14.8092 0.971951 14.703C 0.944898 14.6515 0.925881 14.6147 0.912258 14.588C 0.905869 14.5755 0.901704 14.5673 0.898493 14.5609C 0.897093 14.5581 0.896353 14.5566 0.89565 14.5552C 0.895401 14.5547 0.895367 14.5547 0.895242 14.5544C 0.89523 14.5544 0.895298 14.5545 0.895292 14.5545C 0.895387 14.5547 0.89551 14.555 0 15C -0.89551 15.445 -0.89533 15.4454 -0.895121 15.4458C -0.895013 15.446 -0.894775 15.4465 -0.89456 15.4469C -0.89423 15.4476 -0.893582 15.4489 -0.892922 15.4502C -0.891807 15.4525 -0.889821 15.4564 -0.887587 15.4608C -0.883533 15.4689 -0.876806 15.4822 -0.868693 15.4981C -0.85331 15.5282 -0.828876 15.5755 -0.798145 15.634C -0.73844 15.7475 -0.645916 15.9199 -0.527052 16.1325C -0.293129 16.5508 0.064525 17.163 0.527071 17.8839C 1.44344 19.3109 2.83652 21.2578 4.62635 23.1817C 8.20383 27.021 13.5754 31 20.5 31L 20.5 29Z"/>
<path id="path1_stroke" d="M 10.1818 5.625C 10.1818 8.18506 8.12068 10.25 5.59091 10.25L 5.59091 12.25C 9.23669 12.25 12.1818 9.27815 12.1818 5.625L 10.1818 5.625ZM 5.59091 10.25C 3.06114 10.25 1 8.18506 1 5.625L -1 5.625C -1 9.27815 1.94513 12.25 5.59091 12.25L 5.59091 10.25ZM 1 5.625C 1 3.06494 3.06114 1 5.59091 1L 5.59091 -1C 1.94513 -1 -1 1.97185 -1 5.625L 1 5.625ZM 5.59091 1C 8.12068 1 10.1818 3.06494 10.1818 5.625L 12.1818 5.625C 12.1818 1.97185 9.23669 -1 5.59091 -1L 5.59091 1Z"/>
</defs>
</svg>
