<svg width="23" height="23" viewBox="0 0 23 23" version="1.1" xmlns="http://www.w3.org/2000/svg" xmlns:xlink="http://www.w3.org/1999/xlink">
<title>phone-call</title>
<desc>Created using Figma</desc>
<g id="Canvas" transform="translate(-290 -6679)">
<g id="phone-call">
<g id="Vector">
<use xlink:href="#path0_stroke" transform="translate(291 6680)" fill="#2D9CDB"/>
</g>
</g>
</g>
<defs>
<path id="path0_stroke" d="M 12.9381 4L 13.1296 3.01851C 12.698 2.93429 12.2619 3.14198 12.0553 3.53022C 11.8487 3.91847 11.92 4.39612 12.231 4.70711L 12.9381 4ZM 16.8881 7.95L 16.181 8.65711C 16.492 8.96809 16.9697 9.03939 17.3579 8.83278C 17.7461 8.62618 17.9538 8.19016 17.8696 7.75851L 16.8881 7.95ZM 12.9381 0L 13.0485 -0.993886C 12.6263 -1.04079 12.2206 -0.81583 12.0367 -0.432897C 11.8528 -0.0499629 11.9309 0.407361 12.2315 0.707552L 12.9381 0ZM 20.8881 7.94L 20.1815 8.64755C 20.482 8.94774 20.9394 9.02527 21.3221 8.8409C 21.7048 8.65652 21.9293 8.25048 21.8819 7.82834L 20.8881 7.94ZM 19.8881 15.92L 18.8884 15.8952C 18.8882 15.9035 18.8881 15.9117 18.8881 15.92L 19.8881 15.92ZM 19.8881 18.92L 18.8881 18.92L 18.8881 18.9241L 19.8881 18.92ZM 17.7081 20.92L 17.6001 21.9141C 17.6061 21.9148 17.6121 21.9154 17.6181 21.9159L 17.7081 20.92ZM 9.07812 17.85L 9.62224 17.0109L 9.61444 17.006L 9.07812 17.85ZM 3.07812 11.85L 3.92216 11.3137L 3.9174 11.3063L 3.07812 11.85ZM 0.00811662 3.18L -0.987825 3.27C -0.987355 3.2752 -0.986844 3.2804 -0.986292 3.2856L 0.00811662 3.18ZM 1.99812 1L 1.99812 -4.43424e-07L 1.99718 4.43423e-07L 1.99812 1ZM 4.99812 1L 4.99812 2.00005L 5.00796 1.99995L 4.99812 1ZM 6.99812 2.72L 7.98957 2.58924L 7.98828 2.58005L 6.99812 2.72ZM 7.69812 5.53L 6.76122 5.87961L 6.76206 5.88186L 7.69812 5.53ZM 7.24812 7.64L 7.95523 8.34712L 7.95917 8.34314L 7.24812 7.64ZM 5.97812 8.91L 5.27101 8.20289C 4.9527 8.52121 4.88631 9.01297 5.10882 9.40429L 5.97812 8.91ZM 11.9781 14.91L 11.4838 15.7793C 11.8751 16.0018 12.3669 15.9354 12.6852 15.6171L 11.9781 14.91ZM 13.2481 13.64L 12.545 12.9289L 12.541 12.9329L 13.2481 13.64ZM 15.3581 13.19L 15.0063 14.1261L 15.0085 14.1269L 15.3581 13.19ZM 18.1681 13.89L 18.3078 12.8998L 18.2989 12.8986L 18.1681 13.89ZM 12.7466 4.98149C 13.5806 5.13303 14.2175 5.47201 14.8091 6.07904L 16.2233 4.66483C 15.4075 3.8645 14.2492 3.2481 13.1296 3.01851L 12.7466 4.98149ZM 14.8091 6.07904C 15.4161 6.67058 15.7551 7.30757 15.9066 8.14149L 17.8696 7.75851C 17.64 6.63897 17.0236 5.48065 16.2233 4.66483L 14.8091 6.07904ZM 17.5952 7.24289L 13.6452 3.29289L 12.231 4.70711L 16.181 8.65711L 17.5952 7.24289ZM 12.8277 0.993886C 14.6918 1.18672 16.2817 1.95023 17.5977 3.28456L 19.011 1.86946C 17.4377 0.318115 15.243 -0.735848 13.0485 -0.993886L 12.8277 0.993886ZM 17.5977 3.28456C 18.9337 4.59883 19.6992 6.18778 19.8944 8.05166L 21.8819 7.82834C 21.6211 5.63424 20.5643 3.44085 19.011 1.86946L 17.5977 3.28456ZM 21.5948 7.23245L 13.6448 -0.707552L 12.2315 0.707552L 20.1815 8.64755L 21.5948 7.23245ZM 18.8881 15.92L 18.8881 18.92L 20.8881 18.92L 20.8881 15.92L 18.8881 15.92ZM 18.8881 18.9241C 18.8942 19.0987 18.8793 19.1709 18.8044 19.3287L 20.6369 20.13C 20.7851 19.7774 20.8843 19.2983 20.8881 18.9159L 18.8881 18.9241ZM 18.8044 19.3287C 18.7394 19.4909 18.6965 19.5509 18.5642 19.665L 19.9162 21.1387C 20.1943 20.8763 20.4787 20.4781 20.6369 20.13L 18.8044 19.3287ZM 18.5642 19.665C 18.4391 19.787 18.3757 19.8246 18.2085 19.8754L 18.8492 21.77C 19.2097 21.6424 19.6308 21.3933 19.9162 21.1387L 18.5642 19.665ZM 18.2085 19.8754C 18.0448 19.9365 17.9716 19.9452 17.7981 19.9241L 17.6181 21.9159C 17.9994 21.945 18.4853 21.8874 18.8492 21.77L 18.2085 19.8754ZM 17.8161 19.9259C 14.8541 19.6108 12.1178 18.6374 9.62222 17.011L 8.53402 18.689C 11.2325 20.4308 14.4078 21.5604 17.6001 21.9141L 17.8161 19.9259ZM 9.61444 17.006C 7.28742 15.5344 5.3937 13.6407 3.92213 11.3137L 2.2341 12.3863C 3.83321 14.8916 6.03647 17.0949 8.54179 18.694L 9.61444 17.006ZM 3.9174 11.3063C 2.28522 8.79943 1.31159 6.04978 1.00253 3.0744L -0.986292 3.2856C -0.638866 6.49221 0.49097 9.68298 2.23884 12.3937L 3.9174 11.3063ZM 1.00406 3.09C 0.983034 2.91709 0.991643 2.84409 1.05231 2.68081L -0.843075 2.04244C -0.95966 2.40543 -1.01678 2.88984 -0.987825 3.27L 1.00406 3.09ZM 1.05231 2.68081C 1.10278 2.51411 1.1401 2.45077 1.26144 2.32581L -0.215676 0.977432C -0.468721 1.26261 -0.716298 1.68287 -0.843075 2.04244L 1.05231 2.68081ZM 1.26144 2.32581C 1.37484 2.1936 1.43453 2.15069 1.59595 2.08526L 0.787861 0.255783C 0.441315 0.414734 0.0453107 0.699502 -0.215676 0.977432L 1.26144 2.32581ZM 1.59595 2.08526C 1.75303 2.01 1.82496 1.99479 1.99906 2L 1.99718 4.43423e-07C 1.61596 0.00573649 1.13875 0.106671 0.787861 0.255783L 1.59595 2.08526ZM 1.99812 2L 4.99812 2L 4.99812 0L 1.99812 0L 1.99812 2ZM 5.00796 1.99995C 5.31406 1.98078 5.44817 2.02976 5.66984 2.24172L 6.97392 0.725348C 6.45965 0.304394 5.65279 0.00967035 4.98828 4.84302e-05L 5.00796 1.99995ZM 5.66984 2.24172C 5.91259 2.42917 5.9811 2.55443 6.00796 2.85995L 7.98828 2.58005C 7.87929 1.92446 7.46711 1.17081 6.97392 0.725348L 5.66984 2.24172ZM 6.0067 2.85076C 6.14229 3.8666 6.40442 4.91886 6.76122 5.8796L 8.63501 5.1804C 8.31471 4.32659 8.10719 3.49353 7.98953 2.58924L 6.0067 2.85076ZM 6.76206 5.88186C 6.85614 6.10336 6.86407 6.20926 6.80402 6.4423L 8.76003 6.85946C 8.85949 6.34456 8.80918 5.67249 8.63417 5.17814L 6.76206 5.88186ZM 6.80402 6.4423C 6.76377 6.67956 6.71332 6.77302 6.53706 6.93686L 7.95917 8.34314C 8.32064 7.96321 8.64077 7.37013 8.76003 6.85946L 6.80402 6.4423ZM 6.54101 6.93289L 5.27101 8.20289L 6.68522 9.61711L 7.95522 8.34711L 6.54101 6.93289ZM 5.10882 9.40429C 6.60632 12.0197 8.86842 14.2818 11.4838 15.7793L 12.4724 14.0407C 10.0807 12.6911 8.19702 10.8074 6.84741 8.41571L 5.10882 9.40429ZM 12.6852 15.6171L 13.9552 14.3471L 12.541 12.9329L 11.271 14.2029L 12.6852 15.6171ZM 13.9513 14.3511C 14.1151 14.1748 14.2086 14.1243 14.4458 14.0841L 14.0287 12.1281C 13.518 12.2474 12.9249 12.5675 12.545 12.9289L 13.9513 14.3511ZM 14.4458 14.0841C 14.6789 14.024 14.7848 14.032 15.0063 14.1261L 15.71 12.2539C 15.2156 12.0789 14.5436 12.0286 14.0287 12.1281L 14.4458 14.0841ZM 15.0085 14.1269C 15.9693 14.4837 17.0215 14.7458 18.0374 14.8814L 18.2989 12.8986C 17.3946 12.7809 16.5615 12.5734 15.7077 12.2531L 15.0085 14.1269ZM 18.0284 14.8802C 18.3373 14.9071 18.4641 14.977 18.6517 15.2239L 20.1776 13.931C 19.7309 13.4294 18.9704 13.01 18.3078 12.8998L 18.0284 14.8802ZM 18.6517 15.2239C 18.8645 15.4495 18.9126 15.5861 18.8884 15.8952L 20.8878 15.9448C 20.888 15.2731 20.5991 14.454 20.1776 13.931L 18.6517 15.2239Z"/>
</defs>
</svg>
