<svg width="31" height="21" viewBox="0 0 31 21" version="1.1" xmlns="http://www.w3.org/2000/svg" xmlns:xlink="http://www.w3.org/1999/xlink">
<title>&#239;&#131;&#149;</title>
<desc>Created using Figma</desc>
<g id="Canvas" transform="translate(-366 -6702)">
<g id="&#239;&#131;&#149;">
<use xlink:href="#path0_fill" transform="translate(366 6700)" fill="#2D9CDB"/>
</g>
</g>
<defs>
<path id="path0_fill" d="M 19.2455 12.6562C 19.2455 12.0134 19.1786 11.5179 19.0848 11.0223L 9.81696 11.0223L 9.81696 14.3973L 15.3884 14.3973C 15.1607 15.8304 13.7009 18.6295 9.81696 18.6295C 6.46875 18.6295 3.73661 15.8571 3.73661 12.4286C 3.73661 9 6.46875 6.22768 9.81696 6.22768C 11.7321 6.22768 13.0045 7.04464 13.7277 7.74107L 16.3929 5.18304C 14.6786 3.57589 12.4688 2.61161 9.81696 2.61161C 4.39286 2.61161 0 7.00446 0 12.4286C 0 17.8527 4.39286 22.2455 9.81696 22.2455C 15.4821 22.2455 19.2455 18.2679 19.2455 12.6562ZM 30.8571 11.0223L 28.058 11.0223L 28.058 8.22321L 25.2455 8.22321L 25.2455 11.0223L 22.4464 11.0223L 22.4464 13.8348L 25.2455 13.8348L 25.2455 16.6339L 28.058 16.6339L 28.058 13.8348L 30.8571 13.8348L 30.8571 11.0223Z"/>
</defs>
</svg>
