<svg width="17" height="18" viewBox="0 0 17 18" version="1.1" xmlns="http://www.w3.org/2000/svg" xmlns:xlink="http://www.w3.org/1999/xlink">
<title>Group</title>
<desc>Created using Figma</desc>
<g id="Canvas" transform="translate(11 -212)">
<g id="Group">
<g id="calendar (1)">
<g id="Vector">
<use xlink:href="#path0_stroke" transform="translate(-10 214.6)" fill="#4F4F4F"/>
</g>
<g id="Vector">
<use xlink:href="#path1_stroke" transform="translate(0.833339 213)" fill="#4F4F4F"/>
</g>
<g id="Vector">
<use xlink:href="#path1_stroke" transform="translate(-5.83334 213)" fill="#4F4F4F"/>
</g>
<g id="Vector">
<use xlink:href="#path2_stroke" transform="translate(-10 219.4)" fill="#4F4F4F"/>
</g>
</g>
<g id="calendar (4)">
<g id="Vector">
<use xlink:href="#path3_fill" transform="translate(-5.14705 221.229)" fill="#4F4F4F"/>
</g>
</g>
</g>
</g>
<defs>
<path id="path0_stroke" d="M 1.66667 1L 13.3333 1L 13.3333 -1L 1.66667 -1L 1.66667 1ZM 13.3333 1C 13.7404 1 14 1.30671 14 1.6L 16 1.6C 16 0.125978 14.7672 -1 13.3333 -1L 13.3333 1ZM 14 1.6L 14 12.8L 16 12.8L 16 1.6L 14 1.6ZM 14 12.8C 14 13.0933 13.7404 13.4 13.3333 13.4L 13.3333 15.4C 14.7672 15.4 16 14.274 16 12.8L 14 12.8ZM 13.3333 13.4L 1.66667 13.4L 1.66667 15.4L 13.3333 15.4L 13.3333 13.4ZM 1.66667 13.4C 1.25961 13.4 1 13.0933 1 12.8L -1 12.8C -1 14.274 0.232774 15.4 1.66667 15.4L 1.66667 13.4ZM 1 12.8L 1 1.6L -1 1.6L -1 12.8L 1 12.8ZM 1 1.6C 1 1.30671 1.25961 1 1.66667 1L 1.66667 -1C 0.232774 -1 -1 0.125978 -1 1.6L 1 1.6Z"/>
<path id="path1_stroke" d="M 1 0C 1 -0.552285 0.552285 -1 0 -1C -0.552285 -1 -1 -0.552285 -1 0L 1 0ZM -1 3.2C -1 3.75228 -0.552285 4.2 0 4.2C 0.552285 4.2 1 3.75228 1 3.2L -1 3.2ZM -1 0L -1 3.2L 1 3.2L 1 0L -1 0Z"/>
<path id="path2_stroke" d="M 0 -1C -0.552285 -1 -1 -0.552285 -1 0C -1 0.552285 -0.552285 1 0 1L 0 -1ZM 15 1C 15.5523 1 16 0.552285 16 0C 16 -0.552285 15.5523 -1 15 -1L 15 1ZM 0 1L 15 1L 15 -1L 0 -1L 0 1Z"/>
<path id="path3_fill" d="M 4.55252 0.179914L 2.27371 3.54224L 0.665592 2.18685C 0.492116 2.03965 0.23516 2.06641 0.0926329 2.24457C -0.0503016 2.42314 -0.025054 2.68702 0.149237 2.83297L 2.0982 4.47608C 2.1715 4.53797 2.26271 4.57143 2.35637 4.57143C 2.3747 4.57143 2.39343 4.57017 2.41216 4.56725C 2.52456 4.55135 2.62555 4.48779 2.6907 4.39202L 5.22117 0.657915C 5.34945 0.46847 5.30424 0.207933 5.11937 0.0757815C 4.93408 -0.0576242 4.68079 -0.00994917 4.55252 0.179914Z"/>
</defs>
</svg>
