<svg width="31" height="36" viewBox="0 0 31 36" version="1.1" xmlns="http://www.w3.org/2000/svg" xmlns:xlink="http://www.w3.org/1999/xlink">
<title>map-pin</title>
<desc>Created using Figma</desc>
<g id="Canvas" transform="translate(219 -147)">
<g id="map-pin">
<g id="Vector">
<use xlink:href="#path0_stroke" transform="translate(-217 149)" fill="#2D9CDB"/>
</g>
<g id="Vector">
<use xlink:href="#path1_stroke" transform="translate(-208 157.727)" fill="#2D9CDB"/>
</g>
</g>
</g>
<defs>
<path id="path0_stroke" d="M 27 13.0909L 28.5 13.0909L 27 13.0909ZM 13.5 32L 12.6857 33.2597C 13.1813 33.5801 13.8187 33.5801 14.3143 33.2597L 13.5 32ZM 0 13.0909L -1.5 13.0909L 0 13.0909ZM 3.95406 3.83424L 2.90984 2.75739L 3.95406 3.83424ZM 13.5 -2.16744e-08L 13.5 1.5L 13.5 -2.16744e-08ZM 25.5 13.0909C 25.5 17.5614 22.4963 21.9179 19.1771 25.3154C 17.544 26.9897 15.9357 28.3305 14.6926 29.29C 14.0791 29.764 13.58 30.1241 13.2196 30.3765C 13.0432 30.5 12.9103 30.5905 12.8153 30.6543C 12.7696 30.685 12.7374 30.7063 12.7137 30.722C 12.7027 30.7292 12.6957 30.7337 12.6901 30.7374C 12.6878 30.7389 12.6867 30.7396 12.6855 30.7404C 12.6851 30.7407 12.6848 30.7409 12.685 30.7408C 12.685 30.7407 12.6851 30.7406 12.6852 30.7406C 12.6854 30.7405 12.6857 30.7403 13.5 32C 14.3143 33.2597 14.3147 33.2595 14.3152 33.2592C 14.3154 33.259 14.3159 33.2587 14.3163 33.2584C 14.3169 33.258 14.3182 33.2572 14.3194 33.2564C 14.3215 33.255 14.3253 33.2526 14.3294 33.2499C 14.3368 33.2451 14.3492 33.237 14.3638 33.2274C 14.3912 33.2093 14.4347 33.1805 14.4879 33.1447C 14.5907 33.0757 14.7478 32.9687 14.9405 32.8338C 15.3185 32.5691 15.874 32.1678 16.5261 31.6645C 17.8143 30.6695 19.581 29.1921 21.3229 27.4119C 24.7537 23.9003 28.5 18.8022 28.5 13.0909L 25.5 13.0909ZM 13.5 32C 14.3143 30.7403 14.3146 30.7405 14.3148 30.7406C 14.3149 30.7406 14.315 30.7407 14.315 30.7408C 14.3152 30.7409 14.3149 30.7407 14.3145 30.7404C 14.3133 30.7396 14.3122 30.7389 14.3099 30.7374C 14.3043 30.7337 14.2973 30.7292 14.2863 30.722C 14.2626 30.7063 14.2304 30.685 14.1847 30.6543C 14.0897 30.5905 13.9568 30.5 13.7804 30.3765C 13.42 30.1241 12.9209 29.764 12.3074 29.29C 11.0643 28.3305 9.45599 26.9897 7.82294 25.3154C 4.50365 21.9179 1.5 17.5614 1.5 13.0909L -1.5 13.0909C -1.5 18.8022 2.24634 23.9003 5.67706 27.4119C 7.41901 29.1921 9.18574 30.6695 10.4739 31.6645C 11.126 32.1678 11.6815 32.5691 12.0595 32.8338C 12.2522 32.9687 12.4093 33.0757 12.5121 33.1447C 12.5653 33.1805 12.6088 33.2093 12.6362 33.2274C 12.6508 33.237 12.6632 33.2451 12.6706 33.2499C 12.6747 33.2526 12.6785 33.255 12.6806 33.2564C 12.6818 33.2572 12.6831 33.258 12.6837 33.2584C 12.6841 33.2587 12.6846 33.259 12.6848 33.2592C 12.6853 33.2595 12.6857 33.2597 13.5 32ZM 1.5 13.0909C 1.5 10.032 2.7527 7.08861 4.99828 4.91109L 2.90984 2.75739C 0.0919296 5.48991 -1.5 9.20601 -1.5 13.0909L 1.5 13.0909ZM 4.99828 4.91109C 7.24542 2.73204 10.3028 1.5 13.5 1.5L 13.5 -1.5C 9.53639 -1.5 5.72618 0.0263906 2.90984 2.75739L 4.99828 4.91109ZM 13.5 1.5C 16.6972 1.5 19.7546 2.73204 22.0017 4.91109L 24.0902 2.75739C 21.2738 0.0263907 17.4636 -1.5 13.5 -1.5L 13.5 1.5ZM 22.0017 4.91109C 24.2473 7.08861 25.5 10.032 25.5 13.0909L 28.5 13.0909C 28.5 9.20601 26.9081 5.48991 24.0902 2.75739L 22.0017 4.91109Z"/>
<path id="path1_stroke" d="M 7.5 4.36364C 7.5 5.902 6.2007 7.22727 4.5 7.22727L 4.5 10.2273C 7.76986 10.2273 10.5 7.64521 10.5 4.36364L 7.5 4.36364ZM 4.5 7.22727C 2.7993 7.22727 1.5 5.902 1.5 4.36364L -1.5 4.36364C -1.5 7.64521 1.23014 10.2273 4.5 10.2273L 4.5 7.22727ZM 1.5 4.36364C 1.5 2.82527 2.7993 1.5 4.5 1.5L 4.5 -1.5C 1.23014 -1.5 -1.5 1.08206 -1.5 4.36364L 1.5 4.36364ZM 4.5 1.5C 6.2007 1.5 7.5 2.82527 7.5 4.36364L 10.5 4.36364C 10.5 1.08206 7.76986 -1.5 4.5 -1.5L 4.5 1.5Z"/>
</defs>
</svg>
