<svg width="15" height="18" viewBox="0 0 15 18" version="1.1" xmlns="http://www.w3.org/2000/svg" xmlns:xlink="http://www.w3.org/1999/xlink">
<title>map-pin</title>
<desc>Created using Figma</desc>
<g id="Canvas" transform="translate(231 -211)">
<g id="map-pin">
<g id="Vector">
<use xlink:href="#path0_stroke" transform="translate(-230 212)" fill="#4F4F4F"/>
</g>
<g id="Vector">
<use xlink:href="#path1_stroke" transform="translate(-225.667 216.364)" fill="#4F4F4F"/>
</g>
</g>
</g>
<defs>
<path id="path0_stroke" d="M 13 6.54545L 14 6.54545L 14 6.54545L 13 6.54545ZM 6.5 16L 5.94262 16.8303C 6.27975 17.0566 6.72025 17.0566 7.05738 16.8303L 6.5 16ZM 0 6.54545L -1 6.54545L -1 6.54545L 0 6.54545ZM 6.5 -1.08372e-08L 6.5 1L 6.5 -1.08372e-08ZM 12 6.54545C 12 8.69158 10.6063 10.8122 9.02166 12.4966C 8.24487 13.3242 7.48452 13.982 6.89004 14.4585C 6.59815 14.6927 6.36302 14.8688 6.19113 14.9938C 6.1077 15.0545 6.04595 15.0982 6.00095 15.1295C 5.97966 15.1444 5.96517 15.1544 5.9541 15.1619C 5.94917 15.1653 5.94632 15.1672 5.94379 15.1689C 5.94282 15.1696 5.94254 15.1698 5.94205 15.1701C 5.94195 15.1702 5.94199 15.1702 5.94204 15.1701C 5.94209 15.1701 5.94224 15.17 5.94226 15.17C 5.94243 15.1699 5.94262 15.1697 6.5 16C 7.05738 16.8303 7.05762 16.8301 7.05789 16.8299C 7.05801 16.8298 7.05831 16.8296 7.05855 16.8295C 7.0589 16.8292 7.05963 16.8287 7.06032 16.8283C 7.06141 16.8275 7.06347 16.8261 7.06563 16.8247C 7.06935 16.8222 7.07583 16.8178 7.08319 16.8127C 7.09672 16.8035 7.11873 16.7883 7.14505 16.77C 7.19526 16.7349 7.27316 16.6799 7.36747 16.6113C 7.55104 16.4778 7.82372 16.2732 8.14121 16.0188C 8.76548 15.518 9.63013 14.7667 10.4783 13.867C 12.1437 12.0969 14 9.49024 14 6.54545L 12 6.54545ZM 6.5 16C 7.05738 15.1697 7.05757 15.1699 7.05774 15.17C 7.05776 15.17 7.05791 15.1701 7.05796 15.1701C 7.05801 15.1702 7.05805 15.1702 7.05795 15.1701C 7.05746 15.1698 7.05718 15.1696 7.05621 15.1689C 7.05368 15.1672 7.05083 15.1653 7.0459 15.1619C 7.03483 15.1544 7.02034 15.1444 6.99905 15.1295C 6.95405 15.0982 6.8923 15.0545 6.80887 14.9938C 6.63698 14.8688 6.40185 14.6927 6.10996 14.4585C 5.51548 13.982 4.75513 13.3242 3.97834 12.4966C 2.39367 10.8122 1 8.69158 1 6.54545L -1 6.54545C -1 9.49024 0.856335 12.0969 2.52166 13.867C 3.36987 14.7667 4.23452 15.518 4.85879 16.0188C 5.17628 16.2732 5.44896 16.4778 5.63253 16.6113C 5.72684 16.6799 5.80474 16.7349 5.85495 16.77C 5.88127 16.7883 5.90328 16.8035 5.91681 16.8127C 5.92417 16.8178 5.93065 16.8222 5.93437 16.8247C 5.93653 16.8261 5.93859 16.8275 5.93968 16.8283C 5.94037 16.8287 5.9411 16.8292 5.94145 16.8295C 5.94169 16.8296 5.94199 16.8298 5.94211 16.8299C 5.94238 16.8301 5.94262 16.8303 6.5 16ZM 1 6.54545C 1 5.07247 1.58114 3.6612 2.61337 2.62176L 1.19424 1.21248C -0.211505 2.62805 -1 4.54652 -1 6.54545L 1 6.54545ZM 2.61337 2.62176C 3.64537 1.58255 5.04357 1 6.5 1L 6.5 -1C 4.50862 -1 2.60022 -0.20333 1.19424 1.21248L 2.61337 2.62176ZM 6.5 1C 7.95643 1 9.35463 1.58255 10.3866 2.62176L 11.8058 1.21248C 10.3998 -0.20333 8.49138 -1 6.5 -1L 6.5 1ZM 10.3866 2.62176C 11.4189 3.66121 12 5.07247 12 6.54545L 14 6.54545C 14 4.54652 13.2115 2.62805 11.8058 1.21248L 10.3866 2.62176Z"/>
<path id="path1_stroke" d="M 3.33333 2.18182C 3.33333 2.8411 2.80444 3.36364 2.16667 3.36364L 2.16667 5.36364C 3.92213 5.36364 5.33333 3.93251 5.33333 2.18182L 3.33333 2.18182ZM 2.16667 3.36364C 1.52889 3.36364 1 2.8411 1 2.18182L -1 2.18182C -1 3.93251 0.411206 5.36364 2.16667 5.36364L 2.16667 3.36364ZM 1 2.18182C 1 1.52254 1.52889 1 2.16667 1L 2.16667 -1C 0.411206 -1 -1 0.43113 -1 2.18182L 1 2.18182ZM 2.16667 1C 2.80444 1 3.33333 1.52254 3.33333 2.18182L 5.33333 2.18182C 5.33333 0.43113 3.92213 -1 2.16667 -1L 2.16667 1Z"/>
</defs>
</svg>
