<svg width="40" height="33" viewBox="0 0 40 33" version="1.1" xmlns="http://www.w3.org/2000/svg" xmlns:xlink="http://www.w3.org/1999/xlink">
<title>users</title>
<desc>Created using Figma</desc>
<g id="Canvas" transform="translate(579 -511)">
<g id="users">
<g id="Vector">
<use xlink:href="#path0_stroke" transform="translate(-577 532.333)" fill="#2D9CDB"/>
</g>
<g id="Vector">
<use xlink:href="#path1_stroke" transform="translate(-570.455 513)" fill="#2D9CDB"/>
</g>
<g id="Vector">
<use xlink:href="#path2_stroke" transform="translate(-545.909 532.543)" fill="#2D9CDB"/>
</g>
<g id="Vector">
<use xlink:href="#path3_stroke" transform="translate(-552.455 513.209)" fill="#2D9CDB"/>
</g>
</g>
</g>
<defs>
<path id="path0_stroke" d="M 24.6818 9.66667C 24.6818 10.4951 25.3534 11.1667 26.1818 11.1667C 27.0102 11.1667 27.6818 10.4951 27.6818 9.66667L 24.6818 9.66667ZM 19.6364 2.86191e-15L 19.6364 -1.5L 19.6364 2.86191e-15ZM 6.54545 2.86191e-15L 6.54545 -1.5L 6.54545 2.86191e-15ZM 1.27171e-15 6.44444L -1.5 6.44444L 1.27171e-15 6.44444ZM -1.5 9.66667C -1.5 10.4951 -0.828427 11.1667 1.27171e-15 11.1667C 0.828427 11.1667 1.5 10.4951 1.5 9.66667L -1.5 9.66667ZM 27.6818 9.66667L 27.6818 6.44444L 24.6818 6.44444L 24.6818 9.66667L 27.6818 9.66667ZM 27.6818 6.44444C 27.6818 4.32985 26.8284 2.30667 25.3171 0.81866L 23.2123 2.95641C 24.156 3.88553 24.6818 5.14069 24.6818 6.44444L 27.6818 6.44444ZM 25.3171 0.81866C 23.8065 -0.668573 21.7627 -1.5 19.6364 -1.5L 19.6364 1.5C 20.982 1.5 22.2678 2.02651 23.2123 2.95641L 25.3171 0.81866ZM 19.6364 -1.5L 6.54545 -1.5L 6.54545 1.5L 19.6364 1.5L 19.6364 -1.5ZM 6.54545 -1.5C 4.41913 -1.5 2.37528 -0.668573 0.864739 0.81866L 2.9695 2.95641C 3.91398 2.02651 5.19985 1.5 6.54545 1.5L 6.54545 -1.5ZM 0.864739 0.81866C -0.646596 2.30667 -1.5 4.32985 -1.5 6.44444L 1.5 6.44444C 1.5 5.14069 2.02581 3.88553 2.9695 2.95641L 0.864739 0.81866ZM -1.5 6.44444L -1.5 9.66667L 1.5 9.66667L 1.5 6.44444L -1.5 6.44444Z"/>
<path id="path1_stroke" d="M 11.5909 6.44444C 11.5909 9.15328 9.35406 11.3889 6.54545 11.3889L 6.54545 14.3889C 10.9668 14.3889 14.5909 10.8539 14.5909 6.44444L 11.5909 6.44444ZM 6.54545 11.3889C 3.73685 11.3889 1.5 9.15328 1.5 6.44444L -1.5 6.44444C -1.5 10.8539 2.12415 14.3889 6.54545 14.3889L 6.54545 11.3889ZM 1.5 6.44444C 1.5 3.73561 3.73685 1.5 6.54545 1.5L 6.54545 -1.5C 2.12415 -1.5 -1.5 2.03494 -1.5 6.44444L 1.5 6.44444ZM 6.54545 1.5C 9.35406 1.5 11.5909 3.73561 11.5909 6.44444L 14.5909 6.44444C 14.5909 2.03494 10.9668 -1.5 6.54545 -1.5L 6.54545 1.5Z"/>
<path id="path2_stroke" d="M 3.40909 9.45722C 3.40909 10.2856 4.08066 10.9572 4.90909 10.9572C 5.73752 10.9572 6.40909 10.2856 6.40909 9.45722L 3.40909 9.45722ZM 4.90909 6.235L 6.40909 6.235L 6.40909 6.23386L 4.90909 6.235ZM 3.53678 2.29151L 2.35824 3.21943L 3.53678 2.29151ZM 0.369566 -1.45376C -0.433324 -1.65787 -1.24966 -1.17246 -1.45376 -0.369566C -1.65787 0.433324 -1.17246 1.24966 -0.369566 1.45376L 0.369566 -1.45376ZM 6.40909 9.45722L 6.40909 6.235L 3.40909 6.235L 3.40909 9.45722L 6.40909 9.45722ZM 6.40909 6.23386C 6.38694 4.55656 5.74101 2.69966 4.71532 1.36359L 2.35824 3.21943C 3.10961 4.14039 3.42908 5.05767 3.40909 6.23614L 6.40909 6.23386ZM 4.71532 1.36359C 3.65898 0.0546441 2.00477 -1.01756 0.369566 -1.45376L -0.369566 1.45376C 0.803655 1.7315 1.63753 2.27134 2.35824 3.21943L 4.71532 1.36359Z"/>
<path id="path3_stroke" d="M 0.366663 -1.4545C -0.436633 -1.657 -1.25199 -1.16996 -1.4545 -0.366663C -1.657 0.436633 -1.16996 1.25199 -0.366663 1.4545L 0.366663 -1.4545ZM 4.92193 6.24306L 6.42193 6.24306L 4.92193 6.24306ZM -0.366663 11.0316C -1.16996 11.2341 -1.657 12.0495 -1.4545 12.8528C -1.25199 13.6561 -0.436633 14.1431 0.366663 13.9406L -0.366663 11.0316ZM -0.366663 1.4545C 0.809677 1.73045 1.64624 2.27047 2.3691 3.22018L 4.72499 1.36282C 3.66551 0.0517889 2.00623 -1.02059 0.366663 -1.4545L -0.366663 1.4545ZM 2.3691 3.22018C 3.12272 4.14262 3.4429 5.06207 3.42193 6.24306L 6.42193 6.24306C 6.40095 4.56216 5.7537 2.70112 4.72499 1.36282L 2.3691 3.22018ZM 3.42193 6.24306C 3.4429 7.42404 3.12272 8.34349 2.3691 9.26593L 4.72499 11.1233C 5.7537 9.78499 6.40095 7.92395 6.42193 6.24306L 3.42193 6.24306ZM 2.3691 9.26593C 1.64624 10.2156 0.809677 10.7557 -0.366663 11.0316L 0.366663 13.9406C 2.00623 13.5067 3.66551 12.4343 4.72499 11.1233L 2.3691 9.26593Z"/>
</defs>
</svg>
