<svg width="22" height="18" viewBox="0 0 22 18" version="1.1" xmlns="http://www.w3.org/2000/svg" xmlns:xlink="http://www.w3.org/1999/xlink">
<title>twitter (2)</title>
<desc>Created using Figma</desc>
<g id="Canvas" transform="translate(-323 -6701)">
<g id="twitter (2)">
<g id="Vector">
<use xlink:href="#path0_fill" transform="translate(323 6701)" fill="#828282"/>
</g>
</g>
</g>
<defs>
<path id="path0_fill" d="M 22 0.0100556C 21.0424 0.685533 19.9821 1.20217 18.86 1.54006C 18.2577 0.847566 17.4573 0.356748 16.567 0.133982C 15.6767 -0.088784 14.7395 -0.0327487 13.8821 0.294509C 13.0247 0.621767 12.2884 1.20446 11.773 1.96377C 11.2575 2.72309 10.9877 3.62239 11 4.54006L 11 5.54006C 9.24263 5.58562 7.50127 5.19587 5.93101 4.4055C 4.36074 3.61513 3.01032 2.44869 2 1.01006C 2 1.01006 -2 10.0101 7 14.0101C 4.94053 15.408 2.48716 16.109 2.22045e-15 16.0101C 9 21.0101 20 16.0101 20 4.51006C 19.9991 4.23151 19.9723 3.95365 19.92 3.68006C 20.9406 2.67355 21.6608 1.40277 22 0.0100556Z"/>
</defs>
</svg>
