<svg width="14" height="15" viewBox="0 0 14 15" version="1.1" xmlns="http://www.w3.org/2000/svg" xmlns:xlink="http://www.w3.org/1999/xlink">
<title>user (2)</title>
<desc>Created using Figma</desc>
<g id="Canvas" transform="translate(128 -1457)">
<g id="user (2)">
<g id="Vector">
<use xlink:href="#path0_stroke" transform="translate(-127 1466.67)" fill="#2D9CDB"/>
</g>
<g id="Vector">
<use xlink:href="#path1_stroke" transform="translate(-124 1458)" fill="#2D9CDB"/>
</g>
</g>
</g>
<defs>
<path id="path0_stroke" d="M 11 4.33333C 11 4.88562 11.4477 5.33333 12 5.33333C 12.5523 5.33333 13 4.88562 13 4.33333L 11 4.33333ZM 9 1.28292e-15L 9 -1L 9 1.28292e-15ZM 3 1.28292e-15L 3 -1L 3 1.28292e-15ZM 6.66134e-16 2.88889L -1 2.88889L 6.66134e-16 2.88889ZM -1 4.33333C -1 4.88562 -0.552285 5.33333 6.66134e-16 5.33333C 0.552285 5.33333 1 4.88562 1 4.33333L -1 4.33333ZM 13 4.33333L 13 2.88889L 11 2.88889L 11 4.33333L 13 4.33333ZM 13 2.88889C 13 1.84505 12.569 0.851963 11.815 0.125816L 10.4277 1.56646C 10.7988 1.92385 11 2.40036 11 2.88889L 13 2.88889ZM 11.815 0.125816C 11.0622 -0.599095 10.0489 -1 9 -1L 9 1C 9.54235 1 10.0553 1.20782 10.4277 1.56646L 11.815 0.125816ZM 9 -1L 3 -1L 3 1L 9 1L 9 -1ZM 3 -1C 1.95106 -1 0.93783 -0.599095 0.185038 0.125816L 1.57232 1.56646C 1.94475 1.20782 2.45765 1 3 1L 3 -1ZM 0.185038 0.125816C -0.569038 0.851963 -1 1.84505 -1 2.88889L 1 2.88889C 1 2.40036 1.20118 1.92385 1.57232 1.56646L 0.185038 0.125816ZM -1 2.88889L -1 4.33333L 1 4.33333L 1 2.88889L -1 2.88889Z"/>
<path id="path1_stroke" d="M 5 2.88889C 5 3.89686 4.14048 4.77778 3 4.77778L 3 6.77778C 5.17323 6.77778 7 5.0719 7 2.88889L 5 2.88889ZM 3 4.77778C 1.85952 4.77778 1 3.89686 1 2.88889L -1 2.88889C -1 5.0719 0.826768 6.77778 3 6.77778L 3 4.77778ZM 1 2.88889C 1 1.88092 1.85952 1 3 1L 3 -1C 0.826768 -1 -1 0.705879 -1 2.88889L 1 2.88889ZM 3 1C 4.14048 1 5 1.88092 5 2.88889L 7 2.88889C 7 0.705879 5.17323 -1 3 -1L 3 1Z"/>
</defs>
</svg>
