<svg width="36" height="33" viewBox="0 0 36 33" version="1.1" xmlns="http://www.w3.org/2000/svg" xmlns:xlink="http://www.w3.org/1999/xlink">
<title>map</title>
<desc>Created using Figma</desc>
<g id="Canvas" transform="translate(579 -2704)">
<g id="map">
<g id="Vector">
<use xlink:href="#path0_stroke" transform="translate(-578 2705)" fill="#2D9CDB"/>
</g>
<g id="Vector">
<use xlink:href="#path1_stroke" transform="translate(-567.182 2705)" fill="#2D9CDB"/>
</g>
<g id="Vector">
<use xlink:href="#path1_stroke" transform="translate(-554.818 2711.2)" fill="#2D9CDB"/>
</g>
</g>
</g>
<defs>
<path id="path0_stroke" d="M 0 6.2L -0.497238 5.33239C -0.808194 5.5106 -1 5.8416 -1 6.2L 0 6.2ZM 0 31L -1 31C -1 31.3567 -0.810003 31.6864 -0.501379 31.8652C -0.192756 32.0441 0.187763 32.045 0.497238 31.8676L 0 31ZM 10.8182 24.8L 11.2664 23.9061C 10.9668 23.7558 10.6118 23.7657 10.3209 23.9324L 10.8182 24.8ZM 23.1818 31L 22.7336 31.8939C 23.0332 32.0442 23.3882 32.0343 23.6791 31.8676L 23.1818 31ZM 34 24.8L 34.4972 25.6676C 34.8082 25.4894 35 25.1584 35 24.8L 34 24.8ZM 34 0L 35 0C 35 -0.356696 34.81 -0.686387 34.5014 -0.865228C 34.1928 -1.04407 33.8122 -1.04498 33.5028 -0.867614L 34 0ZM 23.1818 6.2L 22.7336 7.0939C 23.0332 7.24417 23.3882 7.2343 23.6791 7.06761L 23.1818 6.2ZM 10.8182 0L 11.2664 -0.893901C 10.9668 -1.04417 10.6118 -1.0343 10.3209 -0.867614L 10.8182 0ZM -1 6.2L -1 31L 1 31L 1 6.2L -1 6.2ZM 0.497238 31.8676L 11.3154 25.6676L 10.3209 23.9324L -0.497238 30.1324L 0.497238 31.8676ZM 10.3699 25.6939L 22.7336 31.8939L 23.6301 30.1061L 11.2664 23.9061L 10.3699 25.6939ZM 23.6791 31.8676L 34.4972 25.6676L 33.5028 23.9324L 22.6846 30.1324L 23.6791 31.8676ZM 35 24.8L 35 0L 33 0L 33 24.8L 35 24.8ZM 33.5028 -0.867614L 22.6846 5.33239L 23.6791 7.06761L 34.4972 0.867614L 33.5028 -0.867614ZM 23.6301 5.3061L 11.2664 -0.893901L 10.3699 0.893901L 22.7336 7.0939L 23.6301 5.3061ZM 10.3209 -0.867614L -0.497238 5.33239L 0.497238 7.06761L 11.3154 0.867614L 10.3209 -0.867614Z"/>
<path id="path1_stroke" d="M 1 0C 1 -0.552285 0.552285 -1 0 -1C -0.552285 -1 -1 -0.552285 -1 0L 1 0ZM -1 24.8C -1 25.3523 -0.552285 25.8 0 25.8C 0.552285 25.8 1 25.3523 1 24.8L -1 24.8ZM -1 0L -1 24.8L 1 24.8L 1 0L -1 0Z"/>
</defs>
</svg>
